#N canvas 748 18 1143 718 10;
#X floatatom 261 308 5 0 127 0 - - -;
#X floatatom 332 309 5 0 100 0 - - -;
#X obj 254 426 osc~;
#X obj 278 512 *~;
#X obj 254 450 *~ 10000;
#X obj 254 476 clip~ -1 1;
#X obj 68 441 osc~;
#X obj 383 169 hradio 15 1 0 3 empty empty empty 0 -8 0 10 -262144
-1 -1 0;
#X floatatom 171 310 5 0 100 0 - - -;
#X obj 76 467 *~;
#X obj 243 225 == 0;
#X obj 489 222 == 1;
#X obj 749 219 == 2;
#X floatatom 749 242 5 0 0 0 - - -;
#X floatatom 489 244 5 0 0 0 - - -;
#X floatatom 243 247 5 0 0 0 - - -;
#X obj 139 507 *~;
#X obj 279 539 *~;
#X floatatom 517 293 5 0 127 0 - - -;
#X obj 512 531 *~;
#X floatatom 593 300 5 0 100 0 - - -;
#X obj 514 412 phasor~;
#X obj 512 478 -~ 1;
#X obj 514 441 *~ 2;
#X obj 575 594 *~;
#X text 360 146 sine square sawtooth;
#X obj 170 396 dbtorms;
#X obj 68 416 mtof;
#X obj 254 401 mtof;
#X obj 330 391 dbtorms;
#X obj 513 382 mtof;
#X obj 591 382 dbtorms;
#X obj 132 184 r \$0-left;
#X obj 607 150 r \$0-right;
#X obj 379 61 r \$0-type;
#X obj 469 681 dac~;
#X obj 66 370 line;
#X obj 188 372 line;
#X obj 258 362 line;
#X obj 514 358 line;
#X obj 594 358 line;
#X obj 336 365 line;
#X msg 64 335 \$1 5;
#X msg 192 337 \$1 5;
#X msg 260 332 \$1 5;
#X msg 334 336 \$1 5;
#X msg 514 325 \$1 5;
#X msg 594 329 \$1 5;
#X obj 9 288 expr if($f1<0 \, 36 \, $f1+36);
#X connect 0 0 44 0;
#X connect 1 0 45 0;
#X connect 2 0 4 0;
#X connect 3 0 17 0;
#X connect 4 0 5 0;
#X connect 5 0 3 0;
#X connect 6 0 9 0;
#X connect 7 0 10 0;
#X connect 7 0 11 0;
#X connect 7 0 12 0;
#X connect 8 0 43 0;
#X connect 9 0 16 0;
#X connect 10 0 15 0;
#X connect 11 0 14 0;
#X connect 12 0 13 0;
#X connect 13 0 24 1;
#X connect 14 0 17 1;
#X connect 15 0 16 1;
#X connect 16 0 35 0;
#X connect 16 0 35 1;
#X connect 17 0 35 0;
#X connect 17 0 35 1;
#X connect 18 0 46 0;
#X connect 19 0 24 0;
#X connect 20 0 47 0;
#X connect 21 0 23 0;
#X connect 22 0 19 0;
#X connect 23 0 22 0;
#X connect 24 0 35 0;
#X connect 24 0 35 1;
#X connect 26 0 9 1;
#X connect 27 0 6 0;
#X connect 28 0 2 0;
#X connect 29 0 3 1;
#X connect 30 0 21 0;
#X connect 31 0 19 1;
#X connect 32 0 8 0;
#X connect 32 0 1 0;
#X connect 32 0 20 0;
#X connect 33 0 18 0;
#X connect 33 0 0 0;
#X connect 33 0 48 0;
#X connect 34 0 7 0;
#X connect 36 0 27 0;
#X connect 37 0 26 0;
#X connect 38 0 28 0;
#X connect 39 0 30 0;
#X connect 40 0 31 0;
#X connect 41 0 29 0;
#X connect 42 0 36 0;
#X connect 43 0 37 0;
#X connect 44 0 38 0;
#X connect 45 0 41 0;
#X connect 46 0 39 0;
#X connect 47 0 40 0;
#X connect 48 0 42 0;
