#N canvas 309 247 593 469 10;
#X obj 268 136 r \$0-left;
#X obj 95 200 mtof;
#X obj 95 237 osc~;
#X floatatom 268 169 5 0 100 0 - - -;
#X floatatom 95 95 5 0 127 0 - - -;
#X obj 95 17 r \$0-right;
#X obj 160 310 *~;
#X obj 268 275 dbtorms;
#X obj 155 381 dac~;
#X obj 268 233 line;
#X msg 268 200 \$1 5;
#X obj 95 161 line;
#X msg 95 125 \$1 5;
#X obj 95 61 expr if($f1<0 \, 36 \, $f1+36);
#X connect 0 0 3 0;
#X connect 1 0 2 0;
#X connect 2 0 6 0;
#X connect 3 0 10 0;
#X connect 4 0 12 0;
#X connect 5 0 13 0;
#X connect 6 0 8 0;
#X connect 6 0 8 1;
#X connect 7 0 6 1;
#X connect 9 0 7 0;
#X connect 10 0 9 0;
#X connect 11 0 1 0;
#X connect 12 0 11 0;
#X connect 13 0 4 0;
