#N canvas 172 240 514 463 10;
#X obj 270 113 r \$0-left;
#X obj 97 97 mtof;
#X obj 97 137 osc~;
#X obj 96 179 *~ 10000;
#X floatatom 270 155 5 0 100 0 - - -;
#X floatatom 97 61 5 0 127 0 - - -;
#X obj 97 25 r \$0-right;
#X obj 96 231 clip~ -1 1;
#X obj 162 287 *~;
#X obj 270 199 dbtorms;
#X obj 157 358 dac~;
#X connect 0 0 4 0;
#X connect 1 0 2 0;
#X connect 2 0 3 0;
#X connect 3 0 7 0;
#X connect 4 0 9 0;
#X connect 5 0 1 0;
#X connect 6 0 5 0;
#X connect 7 0 8 0;
#X connect 8 0 10 0;
#X connect 8 0 10 1;
#X connect 9 0 8 1;
